<mxfile host="65bd71144e" scale="1" border="10">
    <diagram id="59DvSauhzj3vqoOBRgNi" name="iterator">
        <mxGraphModel dx="1632" dy="886" grid="1" gridSize="10" guides="1" tooltips="1" connect="1" arrows="1" fold="1" page="1" pageScale="1" pageWidth="827" pageHeight="1169" background="#FFFFFF" math="0" shadow="0">
            <root>
                <mxCell id="w9Iu98WscyFDLbroQzuf-0"/>
                <mxCell id="w9Iu98WscyFDLbroQzuf-1" parent="w9Iu98WscyFDLbroQzuf-0"/>
                <mxCell id="Yrwoq0YL18L5McrpzAKP-1" value="std::vector::shrink_to_fit" style="text;strokeColor=#666666;fillColor=#f5f5f5;html=1;fontSize=24;fontStyle=1;verticalAlign=middle;align=center;shadow=0;labelBorderColor=none;fontColor=#333333;" parent="w9Iu98WscyFDLbroQzuf-1" vertex="1">
                    <mxGeometry x="250" y="250" width="305" height="40" as="geometry"/>
                </mxCell>
                <mxCell id="Yrwoq0YL18L5McrpzAKP-21" value="value0" style="rounded=0;whiteSpace=wrap;html=1;shadow=0;labelBorderColor=none;strokeColor=#82b366;fillColor=#d5e8d4;fontColor=#000000;" parent="w9Iu98WscyFDLbroQzuf-1" vertex="1">
                    <mxGeometry x="235" y="330" width="80" height="40" as="geometry"/>
                </mxCell>
                <mxCell id="Yrwoq0YL18L5McrpzAKP-22" value="value1" style="rounded=0;whiteSpace=wrap;html=1;shadow=0;labelBorderColor=none;strokeColor=#82b366;fillColor=#d5e8d4;fontColor=#000000;" parent="w9Iu98WscyFDLbroQzuf-1" vertex="1">
                    <mxGeometry x="315" y="330" width="80" height="40" as="geometry"/>
                </mxCell>
                <mxCell id="75" value="" style="rounded=0;whiteSpace=wrap;html=1;shadow=0;labelBorderColor=none;strokeColor=#666666;fillColor=#f5f5f5;fontColor=#333333;" vertex="1" parent="w9Iu98WscyFDLbroQzuf-1">
                    <mxGeometry x="395" y="330" width="80" height="40" as="geometry"/>
                </mxCell>
                <mxCell id="76" value="" style="rounded=0;whiteSpace=wrap;html=1;shadow=0;labelBorderColor=none;strokeColor=#666666;fillColor=#f5f5f5;fontColor=#333333;" vertex="1" parent="w9Iu98WscyFDLbroQzuf-1">
                    <mxGeometry x="475" y="330" width="80" height="40" as="geometry"/>
                </mxCell>
                <mxCell id="77" value="value0" style="rounded=0;whiteSpace=wrap;html=1;shadow=0;labelBorderColor=none;strokeColor=#82b366;fillColor=#d5e8d4;fontColor=#000000;" vertex="1" parent="w9Iu98WscyFDLbroQzuf-1">
                    <mxGeometry x="235" y="460" width="80" height="40" as="geometry"/>
                </mxCell>
                <mxCell id="78" value="value1" style="rounded=0;whiteSpace=wrap;html=1;shadow=0;labelBorderColor=none;strokeColor=#82b366;fillColor=#d5e8d4;fontColor=#000000;" vertex="1" parent="w9Iu98WscyFDLbroQzuf-1">
                    <mxGeometry x="315" y="460" width="80" height="40" as="geometry"/>
                </mxCell>
                <mxCell id="81" value="" style="shape=flexArrow;endArrow=classic;html=1;fillColor=#f5f5f5;strokeColor=#666666;" edge="1" parent="w9Iu98WscyFDLbroQzuf-1">
                    <mxGeometry width="50" height="50" relative="1" as="geometry">
                        <mxPoint x="402" y="380" as="sourcePoint"/>
                        <mxPoint x="402" y="450" as="targetPoint"/>
                    </mxGeometry>
                </mxCell>
            </root>
        </mxGraphModel>
    </diagram>
</mxfile>